<svg xmlns="http://www.w3.org/2000/svg" width="20.333" height="20.333" viewBox="0 0 20.333 20.333">
  <g id="Gruppe_352" data-name="Gruppe 352" transform="translate(-15.936 -15.917)">
    <path id="Pfad_86" data-name="Pfad 86" d="M34.547,16.248a1.125,1.125,0,0,0-1.6,0l-5.9,5.9-4.885,4.886-5.9,5.9a1.125,1.125,0,0,0,0,1.6l1.391,1.39a1.125,1.125,0,0,0,1.6,0l5.9-5.9,4.886-4.885,5.9-5.9a1.124,1.124,0,0,0,0-1.594Z" transform="translate(0)" fill="#fff"/>
    <path id="Pfad_87" data-name="Pfad 87" d="M16.268,17.639a1.125,1.125,0,0,0,0,1.6l5.9,5.9,4.886,4.885,5.9,5.9a1.125,1.125,0,0,0,1.6,0l1.39-1.391a1.125,1.125,0,0,0,0-1.6l-5.9-5.9-4.885-4.886-5.9-5.9a1.124,1.124,0,0,0-1.594,0Z" transform="translate(0)" fill="#fff"/>
  </g>
</svg>
