<svg xmlns="http://www.w3.org/2000/svg" width="22.112" height="29.272" viewBox="0 0 22.112 29.272">
  <g id="Ebene_1" data-name="Ebene 1" transform="translate(-32.889 -27.688)">
    <g id="Gruppe_287" data-name="Gruppe 287" transform="translate(33.278 28.688)">
      <rect id="Rechteck_183" data-name="Rechteck 183" width="16.33" height="24.127" rx="1.018" transform="translate(2.502 3.644)" fill="#fff" stroke="#f3d408" stroke-width="1"/>
      <circle id="Ellipse_10" data-name="Ellipse 10" cx="1.951" cy="1.951" r="1.951" transform="translate(8.666)" stroke-width="2" stroke="#f3d408" stroke-linecap="round" stroke-linejoin="round" fill="none"/>
      <rect id="Rechteck_184" data-name="Rechteck 184" width="21.333" height="3.022" rx="1.503" transform="translate(0 2.134)" stroke-width="0.778" stroke="#f3d408" stroke-linecap="round" stroke-linejoin="round" fill="#fff"/>
      <g id="Gruppe_286" data-name="Gruppe 286" transform="translate(5.116 7.449)">
        <path id="Pfad_79" data-name="Pfad 79" d="M42.091,40.367h0a.793.793,0,0,1,.793.793V57.913a.793.793,0,0,1-.793.793h0a.792.792,0,0,1-.793-.793V41.16A.793.793,0,0,1,42.091,40.367Z" transform="translate(-41.298 -40.367)" fill="#f3d408" stroke="#f3d408" stroke-width="1"/>
        <path id="Pfad_80" data-name="Pfad 80" d="M49.55,40.367h0a.793.793,0,0,1,.793.793V57.913a.793.793,0,0,1-.793.793h0a.793.793,0,0,1-.793-.793V41.16A.793.793,0,0,1,49.55,40.367Z" transform="translate(-43.999 -40.367)" fill="#f3d408" stroke="#f3d408" stroke-width="1"/>
        <path id="Pfad_81" data-name="Pfad 81" d="M57.01,40.367h0a.793.793,0,0,1,.793.793V57.913a.793.793,0,0,1-.793.793h0a.792.792,0,0,1-.793-.793V41.16A.793.793,0,0,1,57.01,40.367Z" transform="translate(-46.701 -40.367)" fill="#f3d408" stroke="#f3d408" stroke-width="1"/>
      </g>
    </g>
  </g>
</svg>
