<svg xmlns="http://www.w3.org/2000/svg" width="54.013" height="52.354" viewBox="0 0 54.013 52.354">
  <g id="Gruppe_365" data-name="Gruppe 365" transform="translate(-217.252 -352.566)">
    <path id="Pfad_97" data-name="Pfad 97" d="M-541.5,1115l5-13,32,4.5V1120l3,9-7.5,7-32.5-7-4.5-7Z" transform="translate(768 -746)" fill="#fff"/>
    <path id="Pfad_77" data-name="Pfad 77" d="M157.856,165.761l-1.16-12.943a3.346,3.346,0,0,0-3.346-3.346H121.932a3.347,3.347,0,0,0-3.346,3.346l-1.16,12.943a3.9,3.9,0,0,0-3.526,3.885v11.577a3.9,3.9,0,0,0,3.8,3.9v6.29a3.545,3.545,0,0,0,7.09,0v-6.287H150.5v6.2a3.545,3.545,0,0,0,7.09,0v-6.2a3.9,3.9,0,0,0,3.8-3.9V169.646A3.9,3.9,0,0,0,157.856,165.761Zm-35.928-13.168h31.427l.91,11.361H121.017Zm-.687,22.842a3.569,3.569,0,1,1,3.567-3.567A3.566,3.566,0,0,1,121.24,175.435Zm32.8,0a3.566,3.566,0,1,1,3.566-3.567A3.567,3.567,0,0,1,154.042,175.435Z" transform="translate(135.252 187.117) rotate(9)" fill="#8ab73b"/>
  </g>
</svg>
