<svg xmlns="http://www.w3.org/2000/svg" width="31.102" height="35.294" viewBox="0 0 31.102 35.294">
  <g id="Gruppe_345" data-name="Gruppe 345" transform="translate(0)">
    <path id="Pfad_85" data-name="Pfad 85" d="M15.551,0A2.068,2.068,0,0,0,13.5,2.049V3.4A2.049,2.049,0,0,0,10.47,6.111l3.033,4.4V14.1L10.4,12.3,8.1,7.478A2.049,2.049,0,0,0,4.24,8.751L3.067,8.073a2.049,2.049,0,0,0-2.048,3.548l1.173.677a2.049,2.049,0,0,0,.827,3.98l5.328-.426,3.106,1.793L9.795,18.6l-1.447.836L3.02,19.014a2.049,2.049,0,0,0-.828,3.98l-1.173.677A2.048,2.048,0,0,0,3.066,27.22l1.173-.677A2.049,2.049,0,0,0,8.1,27.816l2.3-4.828,1.446-.836,1.659-.958v3.586l-3.033,4.4A2.049,2.049,0,0,0,13.5,31.89v1.355a2.049,2.049,0,0,0,4.1,0V31.89a2.049,2.049,0,0,0,3.033-2.707l-3.033-4.4V21.195l3.1,1.793L23,27.816a2.049,2.049,0,0,0,3.861-1.274l1.173.677a2.048,2.048,0,1,0,2.048-3.548l-1.173-.677a2.049,2.049,0,0,0-.828-3.98l-5.328.426L21.306,18.6l-1.659-.958,3.106-1.793,5.328.426a2.048,2.048,0,0,0,.827-3.98l1.173-.677a2.049,2.049,0,1,0-2.048-3.548l-1.173.677A2.049,2.049,0,0,0,23,7.478L20.7,12.3,17.6,14.1V10.513l3.033-4.4A2.049,2.049,0,0,0,17.6,3.4V2.049A2.068,2.068,0,0,0,15.551,0Zm0,1.058a.989.989,0,0,1,.991.991V6.69l1.587-2.3a.991.991,0,0,1,1.632,1.125l-3.22,4.672V15.93l4.977-2.874,2.436-5.124a.991.991,0,1,1,1.791.851l-1.2,2.526,4.018-2.32a.991.991,0,1,1,.991,1.717l-4.019,2.32,2.789.224a.991.991,0,1,1-.158,1.976l-5.656-.453-4.977,2.874,3.245,1.874,1.732,1,5.656-.452a.991.991,0,1,1,.158,1.976l-2.788.223,4.018,2.32a.991.991,0,1,1-.991,1.716l-4.018-2.32,1.2,2.526a.991.991,0,0,1-1.791.852l-2.436-5.125-4.977-2.874V25.11l3.22,4.672a.991.991,0,1,1-1.632,1.125l-1.587-2.3v4.641a.991.991,0,0,1-1.982,0V28.6l-1.587,2.3a.991.991,0,1,1-1.632-1.125l3.22-4.672V19.363l-3.246,1.874-1.732,1L7.146,27.362a.991.991,0,1,1-1.791-.852l1.2-2.527L2.538,26.3a.991.991,0,0,1-.991-1.716l4.018-2.32-2.788-.223a.991.991,0,1,1,.158-1.976l5.656.452,1.732-1,3.246-1.874L8.591,14.773l-5.656.453a.991.991,0,1,1-.158-1.976l2.789-.223L1.547,10.706A.991.991,0,0,1,2.538,8.99L6.557,11.31l-1.2-2.527a.991.991,0,1,1,1.791-.851l2.436,5.124L14.56,15.93V10.184l-3.22-4.672a.991.991,0,1,1,1.632-1.125l1.587,2.3V2.049a.989.989,0,0,1,.991-.991Z" transform="translate(0)" fill="#f3d408"/>
  </g>
</svg>
