<svg xmlns="http://www.w3.org/2000/svg" width="59.441" height="57.526" viewBox="0 0 59.441 57.526">
  <g id="Gruppe_364" data-name="Gruppe 364" transform="translate(-222.357 -103.898)">
    <path id="Pfad_93" data-name="Pfad 93" d="M-540,865v16l26.5,6.5,11-18.5Z" transform="translate(769 -747)" fill="#fff"/>
    <path id="Pfad_94" data-name="Pfad 94" d="M276.574,41.889a1.527,1.527,0,0,0-.246.023h0l-8.1,1.383a1.5,1.5,0,0,0-1.138.928v0l-3.759,9.638-36.682.915a1.5,1.5,0,0,0-1.447,1.679l2.025,16.75a1.507,1.507,0,0,0,1.37,1.315l26.151,2.08,5.183,4.077.018.014c.006,0,.013.005.018.009l.018.014a2.3,2.3,0,0,1,1.047,2.2,1.033,1.033,0,0,1-.469.7,2.7,2.7,0,0,1-1.57.25h-.1l-31.189.091h0a1.5,1.5,0,1,0,.009,2.994h0l2.28,0a3.029,3.029,0,1,0,3.231-.014l25.683-.073a3.027,3.027,0,1,0,2.121-.323,4.873,4.873,0,0,0,2.894-2.835.361.361,0,0,0,.023-.055,5.172,5.172,0,0,0-2.084-5.256l-.014-.014s0-.01-.009-.014a.378.378,0,0,0-.05-.05l-3.672-2.88L269.561,46.1l7.267-1.238h0a1.5,1.5,0,0,0-.259-2.976h0ZM262.222,56.177l-2.111,5.415h-2.753V56.3Zm-5.916.15v5.265h-5.083V56.455l5.083-.127Zm-6.134.15v5.115H245.09V56.6Zm-6.134.155v4.96h-5.083V56.759Zm-6.134.155v4.805h-5.083V56.914Zm-6.134.15v4.655h-3.727l-.551-4.546Zm-3.6,5.7h3.6v4.755h-3.026l-.573-4.755Zm4.651,0H237.9v4.755h-5.083Zm6.134,0h5.083v4.755h-5.083Zm6.134,0h5.083v4.755H245.09Zm6.134,0h5.083v4.755h-5.083Zm6.134,0h2.348l-1.857,4.755h-.491Zm-28.485,5.8h2.9v3.413l-2.512-.2Zm3.95,0h5.083v3.9l-5.083-.4Zm6.134,0h5.083v4.387l-5.083-.4Zm6.134,0h5.083v4.878l-5.083-.4Zm6.134,0h5.083v2.894l-.965,2.471a1.129,1.129,0,0,0-.4-.109l-3.718-.3V68.44Zm6.134,0h.077l-.077.214Zm-25.75,19.285a1.781,1.781,0,1,1-1.784,1.784A1.775,1.775,0,0,1,231.608,87.725Zm28.772,0a1.781,1.781,0,1,1-1.784,1.784A1.775,1.775,0,0,1,260.38,87.725Zm-28.772.846a.967.967,0,1,0,.969.969A.965.965,0,0,0,231.608,88.572Zm28.772,0a.967.967,0,1,0,.969.969A.965.965,0,0,0,260.38,88.572Z" transform="translate(12.239 31.078) rotate(8)" fill="#f3d408"/>
  </g>
</svg>
