<svg xmlns="http://www.w3.org/2000/svg" width="38.899" height="37.646" viewBox="0 0 38.899 37.646">
  <g id="Gruppe_366" data-name="Gruppe 366" transform="translate(-54.356 -168.234)">
    <path id="Pfad_91" data-name="Pfad 91" d="M258.816,41.888a1,1,0,0,0-.161.015h0l-5.3.905a.978.978,0,0,0-.745.607v0l-2.46,6.307-24.005.6a.982.982,0,0,0-.947,1.1l1.325,10.961a.986.986,0,0,0,.9.861l17.114,1.361,3.392,2.668.012.009.012.006.012.009a1.505,1.505,0,0,1,.685,1.441.676.676,0,0,1-.307.459,1.768,1.768,0,0,1-1.027.164h-.069l-20.411.06h0a.98.98,0,1,0,.006,1.959h0l1.492,0a1.982,1.982,0,1,0,2.114-.009l16.808-.048a1.981,1.981,0,1,0,1.388-.211,3.189,3.189,0,0,0,1.894-1.855.236.236,0,0,0,.015-.036,3.385,3.385,0,0,0-1.364-3.439l-.009-.009s0-.007-.006-.009a.247.247,0,0,0-.033-.033l-2.4-1.885,7.5-19.2,4.756-.81h0a.98.98,0,0,0-.17-1.947h0Zm-9.392,9.351-1.382,3.544h-1.8V51.319Zm-3.871.1v3.445h-3.326V51.421l3.326-.083Zm-4.014.1v3.347h-3.326V51.519Zm-4.014.1v3.246H234.2V51.62Zm-4.014.1v3.145h-3.326V51.721Zm-4.014.1v3.046h-2.439l-.36-2.975Zm-2.356,3.731H229.5v3.112h-1.98l-.375-3.112Zm3.043,0h3.326v3.112h-3.326Zm4.014,0h3.326v3.112H234.2Zm4.014,0h3.326v3.112h-3.326Zm4.014,0h3.326v3.112h-3.326Zm4.014,0h1.537l-1.215,3.112h-.322Zm-18.641,3.8h1.9V61.5l-1.644-.131Zm2.585,0h3.326v2.552l-3.326-.265Zm4.014,0h3.326v2.871l-3.326-.262Zm4.014,0h3.326v3.192l-3.326-.265Zm4.014,0h3.326v1.894l-.631,1.617a.739.739,0,0,0-.262-.071l-2.433-.194V59.264Zm4.014,0h.051l-.051.14ZM229.39,71.885a1.166,1.166,0,1,1-1.167,1.167A1.162,1.162,0,0,1,229.39,71.885Zm18.829,0a1.166,1.166,0,1,1-1.167,1.167A1.162,1.162,0,0,1,248.218,71.885Zm-18.829.554a.633.633,0,1,0,.634.634A.631.631,0,0,0,229.39,72.439Zm18.829,0a.633.633,0,1,0,.634.634A.631.631,0,0,0,248.218,72.439Z" transform="translate(-158.197 95.413) rotate(8)" fill="#f3d408"/>
    <path id="Pfad_95" data-name="Pfad 95" d="M-665.5,964.5s7.5,0,4.5-6.5" transform="translate(750 -766)" fill="none" stroke="#f3d408" stroke-width="1"/>
    <path id="Pfad_96" data-name="Pfad 96" d="M-665.5,964.5s7.5,0,4.5-6.5" transform="translate(753 -764)" fill="none" stroke="#f3d408" stroke-width="1"/>
  </g>
</svg>
