<svg xmlns="http://www.w3.org/2000/svg" width="34.057" height="36.579" viewBox="0 0 34.057 36.579">
  <g id="Gruppe_336" data-name="Gruppe 336" transform="translate(-8.299 -5.421)">
    <path id="Pfad_83" data-name="Pfad 83" d="M41.264,16.4h-8.9a9.946,9.946,0,0,1,1,3.457,1.363,1.363,0,1,1-1.3.1A8.583,8.583,0,0,0,30.874,16.4H19.793a8.577,8.577,0,0,0-1.178,3.56,1.362,1.362,0,1,1-1.3-.108,9.932,9.932,0,0,1,.994-3.453H9.39L8.3,46.315A2.182,2.182,0,0,0,10.481,48.5H40.173a2.183,2.183,0,0,0,2.183-2.182Z" transform="translate(0 -6.497)" fill="#f3d408"/>
    <path id="Pfad_84" data-name="Pfad 84" d="M30.661,14.378l0,.024a.479.479,0,0,0,.957,0l0-.059c.03-4.394,3.132-7.959,6.941-7.959s6.923,3.578,6.941,7.984l0,.034a.479.479,0,0,0,.957,0l0-.04c-.027-4.936-3.568-8.941-7.9-8.941s-7.884,4.014-7.9,8.947Z" transform="translate(-13.231)" fill="#f3d408"/>
  </g>
</svg>
