<svg xmlns="http://www.w3.org/2000/svg" width="68.704" height="65.815" viewBox="0 0 68.704 65.815">
  <path id="Pfad_77" data-name="Pfad 77" d="M177.5,173.041l-1.679-18.728a4.841,4.841,0,0,0-4.841-4.842H125.522a4.842,4.842,0,0,0-4.842,4.842L119,173.041a5.649,5.649,0,0,0-5.1,5.621v16.752a5.646,5.646,0,0,0,5.492,5.643v9.1a5.129,5.129,0,0,0,10.258,0v-9.1h37.2v8.971a5.129,5.129,0,0,0,10.258,0v-8.976a5.645,5.645,0,0,0,5.492-5.643V178.662A5.648,5.648,0,0,0,177.5,173.041Zm-51.986-19.053h45.472l1.317,16.439H124.2Zm-.995,33.05a5.165,5.165,0,1,1,5.161-5.161A5.16,5.16,0,0,1,124.521,187.039Zm47.462,0a5.16,5.16,0,1,1,5.16-5.161A5.161,5.161,0,0,1,171.983,187.039Z" transform="translate(-113.9 -149.471)" fill="#fff"/>
</svg>
