<svg xmlns="http://www.w3.org/2000/svg" width="79.853" height="76.457" viewBox="0 0 79.853 76.457">
  <path id="Pfad_78" data-name="Pfad 78" d="M302.748,41.889a2.3,2.3,0,0,0-.371.034h-.007l-12.225,2.088a2.257,2.257,0,0,0-1.717,1.4v.007l-5.673,14.547-55.365,1.381a2.266,2.266,0,0,0-2.184,2.534l3.056,25.282a2.274,2.274,0,0,0,2.067,1.985L269.8,94.286l7.823,6.154.027.02c.008.006.019.008.027.014s.018.014.027.02a3.472,3.472,0,0,1,1.58,3.324,1.559,1.559,0,0,1-.707,1.058,4.077,4.077,0,0,1-2.369.378h-.014c-.04,0-.084,0-.124,0h-.021l-47.075.137h-.007a2.26,2.26,0,1,0,.014,4.519h.007l3.441-.007a4.571,4.571,0,1,0,4.876-.021l38.765-.11a4.57,4.57,0,1,0,3.2-.487,7.356,7.356,0,0,0,4.368-4.279.549.549,0,0,0,.034-.082,7.807,7.807,0,0,0-3.146-7.933l-.021-.021c-.006,0-.007-.016-.014-.02a.571.571,0,0,0-.075-.076l-5.543-4.348,17.287-44.28,10.968-1.868h.007a2.26,2.26,0,0,0-.391-4.492h0ZM281.085,63.455,277.9,71.628h-4.155V63.64Zm-8.929.227v7.946h-7.672V63.874l7.672-.192Zm-9.258.227v7.72h-7.672V64.1Zm-9.258.233v7.486h-7.672V64.334Zm-9.258.234v7.253H236.71V64.568Zm-9.258.227v7.026H229.5l-.831-6.861Zm-5.433,8.606h5.433v7.177h-4.567l-.866-7.177Zm7.019,0h7.672v7.177H236.71Zm9.258,0h7.672v7.177h-7.672Zm9.258,0H262.9v7.177h-7.672Zm9.258,0h7.672v7.177h-7.672Zm9.258,0h3.544l-2.8,7.177h-.742Zm-42.994,8.757h4.375v5.151l-3.791-.3Zm5.962,0h7.672v5.886l-7.672-.611Zm9.258,0h7.672v6.621l-7.672-.6Zm9.258,0H262.9v7.363l-7.672-.611Zm9.258,0h7.672v4.368L270.7,90.062a1.7,1.7,0,0,0-.6-.165l-5.611-.446V81.965Zm9.258,0h.117l-.117.323Zm-38.866,29.108a2.689,2.689,0,1,1-2.692,2.692A2.68,2.68,0,0,1,234.878,111.073Zm43.427,0a2.689,2.689,0,1,1-2.692,2.692A2.68,2.68,0,0,1,278.3,111.073Zm-43.427,1.277a1.459,1.459,0,1,0,1.463,1.463A1.456,1.456,0,0,0,234.878,112.35Zm43.427,0a1.459,1.459,0,1,0,1.463,1.463A1.456,1.456,0,0,0,278.3,112.35Z" transform="translate(-225.188 -41.888)" fill="#fff"/>
</svg>
